<?xml version="1.0" encoding="UTF-8"?>
<svg width="478px" height="272px" viewBox="0 0 478 272" version="1.1" xmlns="http://www.w3.org/2000/svg" xmlns:xlink="http://www.w3.org/1999/xlink">
    <!-- Generator: Sketch 54.1 (76490) - https://sketchapp.com -->
    <title>steampunk-goggles 2</title>
    <desc>Created with Sketch.</desc>
    <g id="Page-1" stroke="none" stroke-width="1" fill="none" fill-rule="evenodd">
        <g id="steampunk-goggles" fill="#FFFFFF" fill-rule="nonzero">
            <path d="M158.342,0.424 C119.298,0.389 77.01,6.736 22.282,18.176 C25.068,29.729 29.279,41.866 34.078,53.494 C143.891,27.341 210.928,36.87 273.941,62.92 C277.971,49.69 284.513,37.507 292.589,27.2 C242.994,8.8 202.725,0.463 158.343,0.424 L158.342,0.424 Z M345.212,14.534 C338.602,14.519 332.814,15.524 328.23,17.91 C327.44,18.59 326.846,19.352 326.496,20.11 C345.056,24.812 362.68,29.855 378.109,35.738 C383.262,31.425 388.889,27.698 394.942,24.711 C377.284,19.241 359.382,14.569 345.21,14.536 L345.212,14.534 Z M3.758,19.597 C2.868,39.245 -2.119,44.357 2.47,78.693 C6.36,107.793 17.565,151.106 64.224,187.773 C60.707,173.318 59.064,159.508 59.637,144.049 C46.831,130.039 34.471,110.215 16.369,58.143 C10.739,44.739 7.535,31.76 3.757,19.596 L3.758,19.597 Z M423.303,34.407 C408.341,34.595 393.993,42.405 382.576,54.349 C369.044,68.505 358.856,88.745 354.342,112.173 C349.826,135.6 351.785,158.053 359.127,176.016 C365.103,190.638 375.052,202.631 388.205,208.348 L388.207,208.348 C392.581,210.318 395.724,211.636 400.207,211.613 C417.251,213.71 433.897,205.501 446.8,192.003 C460.333,177.845 470.517,157.607 475.033,134.179 C479.548,110.753 477.593,88.299 470.253,70.337 C462.91,52.374 449.569,38.375 431.663,35.11 C428.905474,34.6070887 426.10578,34.3719947 423.303,34.408 L423.303,34.407 Z M310.211,34.629 C300.031,46.489 291.721,62.244 288.731,78.709 C312.333,90.503 330.159,111.667 336.451,133.141 C336.599,124.856 337.436,116.531 338.951,108.341 C342.915,86.891 351.439,66.306 364.427,49.905 C348.477,44.362 329.814,39.385 310.212,34.628 L310.211,34.629 Z M424.264,52.374 C425.603612,52.4070052 426.938633,52.5440847 428.257,52.784 C438.787,54.704 447.774,63.134 453.542,77.244 C459.31,91.356 461.246,110.62 457.328,130.95 C453.41,151.28 444.431,168.555 433.801,179.676 C423.169,190.796 411.651,195.488 401.121,193.568 C390.591,191.648 381.604,183.216 375.837,169.105 C370.069,154.995 368.135,135.732 372.054,115.402 C375.972,95.072 384.948,77.798 395.579,66.677 C404.881,56.947 414.859,52.137 424.264,52.375 L424.264,52.374 Z M169.654,74.702 C156.944,74.822 146.284,76.537 138.208,79.926 C110.484,91.564 92.074,108.69 82.514,127.844 C116.394,139.689 133.12,148.774 188.356,151.622 C197.476,125.176 215.443,100.842 243.716,85.88 C215.296,78.365 189.874,74.51 169.653,74.703 L169.654,74.702 Z M441.852,81.108 C431.118,136.366 415.274,153.21 395.674,176.098 C412.941,177.856 429.462,166.834 437.114,137.822 C441.284,122.01 442.65,118.635 441.854,81.107 L441.852,81.108 Z M271.275,94.021 L271.209,94.043 C255.799,93.797 240.969,101.7 229.232,113.976 C215.7,128.133 205.512,148.371 200.998,171.799 C196.483,195.227 198.441,217.681 205.783,235.643 C208.703,242.787 212.573,249.301 217.3,254.763 C222.706,261.413 229.056,266.226 236.057,268.805 C238.754,269.658 241.867,270.405 244.372,270.87 C262.278,274.136 279.925,265.79 293.457,251.633 C306.989,237.476 317.174,217.236 321.689,193.808 C321.905,192.316 322.239,191.191 322.406,189.74 C325.956,167.79 323.824,146.885 316.908,129.965 C311.115,115.79 301.584,104.089 289.023,98.177 C288.27,97.807 287.503,97.449 286.718,97.109 L286.718,97.171 C284.007466,96.0778336 281.193071,95.2623293 278.318,94.737 C276.015466,94.3184719 273.682873,94.0867175 271.343,94.044 C271.320636,94.036759 271.298303,94.0294256 271.276,94.022 L271.275,94.021 Z M270.92,112.001 C272.259281,112.034017 273.593968,112.171096 274.912,112.411 C285.442,114.331 294.43,122.764 300.197,136.875 C305.965,150.985 307.9,170.248 303.982,190.578 C300.064,210.908 291.086,228.182 280.455,239.302 C269.825,250.422 258.308,255.115 247.777,253.195 C237.247,251.275 228.26,242.845 222.492,228.735 C216.725,214.623 214.792,195.359 218.709,175.029 C222.627,154.699 231.604,137.426 242.234,126.305 C251.536,116.575 261.516,111.765 270.92,112.001 L270.92,112.001 Z M292.39,144.498 C281.654,199.758 265.81,216.6 246.21,239.488 C263.478,241.248 279.997,230.225 287.648,201.213 C291.818,185.401 293.185,182.026 292.388,144.498 L292.39,144.498 Z M77.43,145.118 C76.827,159.172 78.37,171.321 81.822,184.66 L82.338,184.414 C106.718,200.864 153.723,217.086 182.705,216.638 C181.075,206.283 180.645,195.448 181.512,184.518 C181.920571,179.437558 182.61736,174.384421 183.599,169.383 C129.781,166.161 109.392,156.326 77.431,145.119 L77.43,145.118 Z M341.72,173.168 C341.63,182.691 340.648,191.542 339.125,199.072 C345.418178,201.631157 351.851916,203.830046 358.395,205.658 C351.787,197.406 346.743,187.902 343.209,177.778 C342.679,176.256 342.187,174.718 341.721,173.168 L341.72,173.168 Z M95.45,213.468 C100.386,219.256 106.172,224.734 112.834,229.768 C141.889,251.732 171.434,260.051 202.232,264.718 C198.226,259.541 194.767,253.768 191.902,247.58 C190.012,243.5 188.377,239.22 186.972,234.797 C154.1,234.191 123.522,225.973 95.449,213.467 L95.45,213.468 Z" id="Shape"></path>
        </g>
    </g>
</svg>