<?xml version="1.0" encoding="utf-8"?>
<!-- Generator: Adobe Illustrator 19.2.0, SVG Export Plug-In . SVG Version: 6.00 Build 0)  -->
<svg version="1.1" id="Layer_1" xmlns="http://www.w3.org/2000/svg" xmlns:xlink="http://www.w3.org/1999/xlink" x="0px" y="0px"
	 viewBox="0 0 100 100" style="enable-background:new 0 0 100 100;" xml:space="preserve">
<style type="text/css">
	.st0{fill:#D0D2D3;}
	.st1{fill:#A6A8AB;}
	.st2{fill:#087A96;}
	.st3{fill:#231F20;}
</style>
<g>
	<g>
		<g>
			
				<ellipse transform="matrix(0.9997 -2.421533e-002 2.421533e-002 0.9997 -1.9497 1.9734)" class="st0" cx="80.5" cy="81.5" rx="6" ry="6"/>
		</g>
		<g>
			<path class="st1" d="M61.3,90c0,1.9,1.7,3.5,3.6,3.4c2,0,3.5-1.7,3.4-3.6c0-1.9-1.7-3.5-3.6-3.4C62.8,86.5,61.3,88.1,61.3,90z"/>
		</g>
		<g>
			<path class="st0" d="M8.3,23.4c0.1,2.1,1.8,3.8,4,3.8c2.1-0.1,3.8-1.8,3.8-4c-0.1-2.1-1.8-3.8-4-3.8C10,19.5,8.3,21.3,8.3,23.4z"
				/>
		</g>
		<g>
			<path class="st1" d="M7.9,38.7c0,1.7,1.4,3,3.1,3c1.7,0,3-1.4,3-3.1c0-1.7-1.4-3-3.1-3C9.1,35.7,7.8,37,7.9,38.7z"/>
		</g>
	</g>
</g>
<g>
	<g>
		<g>
			<g>
				
					<ellipse transform="matrix(0.9997 -2.428271e-002 2.428271e-002 0.9997 -1.4261 2.0427)" class="st2" cx="83.4" cy="59.7" rx="8.4" ry="8.4"/>
			</g>
			<g>
				<path class="st2" d="M40.4,19.4c0.1,4.7,4,8.4,8.6,8.2c4.7-0.1,8.4-4,8.2-8.7c-0.1-4.7-4-8.3-8.7-8.2
					C44,10.8,40.3,14.7,40.4,19.4z"/>
			</g>
			<g>
				
					<ellipse transform="matrix(0.9997 -2.432562e-002 2.432562e-002 0.9997 -0.3139 0.6496)" class="st2" cx="26.5" cy="13.2" rx="6.5" ry="6.5"/>
			</g>
			<g>
				
					<ellipse transform="matrix(0.9997 -2.421533e-002 2.421533e-002 0.9997 -1.9454 1.9806)" class="st2" cx="80.8" cy="81.3" rx="6" ry="6"/>
			</g>
			<g>
				<path class="st2" d="M61.6,89.9c0,1.9,1.7,3.5,3.6,3.4c2,0,3.5-1.7,3.4-3.6c0-1.9-1.7-3.5-3.6-3.4
					C63.1,86.3,61.6,87.9,61.6,89.9z"/>
			</g>
			<g>
				<path class="st2" d="M8.6,23.2c0.1,2.1,1.8,3.8,4,3.8c2.1-0.1,3.8-1.8,3.8-4c-0.1-2.1-1.8-3.8-4-3.8
					C10.3,19.3,8.6,21.1,8.6,23.2z"/>
			</g>
			<g>
				<path class="st2" d="M8.2,38.5c0,1.7,1.4,3,3.1,3c1.7,0,3-1.4,3-3.1c0-1.7-1.4-3-3.1-3C9.4,35.5,8.1,36.9,8.2,38.5z"/>
			</g>
			<g>
				<path class="st2" d="M59.5,36.8c0.1,5.8,5,10.4,10.8,10.3c5.8-0.1,10.4-5,10.3-10.8c-0.1-5.8-5-10.4-10.8-10.3
					C64,26.1,59.4,31,59.5,36.8z"/>
			</g>
		</g>
	</g>
	<g>
		<g>
			<path class="st3" d="M38.7,68.7l13-13.1c0.6-0.6,0.7-1.6,0.4-2.4c-0.4-0.8-1.1-1.3-2-1.3c-0.6,0-1.1,0.2-1.5,0.6l-12.9,13
				L22.6,52.4c-0.4-0.4-1-0.6-1.5-0.6c-0.9,0-1.7,0.5-2,1.4c-0.3,0.8-0.1,1.7,0.5,2.4l13.1,13.2l-12.9,13c-0.6,0.6-0.8,1.5-0.5,2.4
				c0.3,0.8,1.1,1.3,2,1.3c0.6,0,1.1-0.2,1.5-0.6l12.9-13l13.1,12.1c0.4,0.4,1,0.6,1.5,0.6c0.9,0,1.6-0.5,2-1.3
				c0.3-0.8,0.2-1.7-0.4-2.4L38.7,68.7z"/>
			<path class="st3" d="M21.3,86.4c-1.3,0-2.4-0.8-2.9-2c-0.5-1.2-0.2-2.5,0.7-3.5l12.2-12.3L18.8,56.2c-0.9-0.9-1.2-2.2-0.7-3.4
				c0.5-1.2,1.7-2,2.9-2c0.8,0,1.6,0.3,2.2,0.9l12.4,12.5l12.2-12.3c0.6-0.6,1.4-0.9,2.2-0.9c1.3,0,2.4,0.8,2.9,1.9
				c0.5,1.2,0.3,2.5-0.6,3.4L40.2,68.6L52.5,80c1,1,1.2,2.4,0.7,3.5c-0.5,1.2-1.7,1.9-2.9,1.9c-0.8,0-1.6-0.3-2.2-0.9L35.7,73.1
				L23.5,85.4C22.9,86,22.1,86.4,21.3,86.4z M21.1,52.8c-0.5,0-0.9,0.3-1.1,0.7c-0.2,0.4-0.1,0.9,0.3,1.3L34,68.7L20.5,82.3
				c-0.4,0.4-0.5,0.8-0.3,1.3c0.3,0.7,1.3,0.9,1.9,0.4l13.6-13.7l13.8,12.7c0.7,0.7,1.6,0.4,1.9-0.3c0.2-0.4,0.1-0.9-0.3-1.3
				L37.3,68.7L51,54.9c0.3-0.3,0.4-0.8,0.2-1.3c-0.3-0.7-1.3-0.9-1.9-0.4L35.7,67L21.9,53.1C21.7,52.9,21.4,52.8,21.1,52.8z"/>
		</g>
	</g>
</g>
</svg>
